<svg width="3000" height="3000" viewBox="0 0 959 697" fill="none" xmlns="http://www.w3.org/2000/svg">
<path d="M237.248 119.045C265.601 146.391 282.697 168.39 293.329 190.184C302.293 208.894 301.46 214.446 292.078 199.437C282.071 183.194 264.35 165.923 251.216 159.344C240.792 154.204 238.082 153.792 222.446 154.615C208.061 155.437 203.266 156.465 192.008 162.428C176.79 170.446 150.104 194.502 134.677 213.829C125.295 225.343 124.878 226.576 129.465 225.548C157.818 218.763 174.288 217.119 214.733 216.913C251.425 216.913 259.138 217.53 268.937 220.819C288.951 227.604 289.993 229.866 272.273 228.632C253.718 227.604 244.128 230.277 233.079 240.146C217.026 254.333 208.687 277.772 207.227 312.519C206.185 335.753 206.393 335.958 209.938 331.024C221.612 314.986 247.255 287.23 260.389 276.333C274.983 264.202 294.788 252.894 297.081 255.361C297.707 255.978 287.492 277.155 274.566 302.445C237.665 374.201 212.231 434.237 197.012 485.227C186.588 519.974 187.63 517.918 184.92 511.956C176.998 493.451 148.228 438.76 134.885 416.144C126.129 401.34 118.833 388.182 118.833 386.948C118.833 379.546 153.023 407.714 165.74 425.602C169.284 430.742 169.284 430.536 168.242 414.91C166.366 386.948 156.15 372.35 137.804 370.5C131.967 370.089 127.797 368.855 128.214 368.032C128.84 367.004 135.928 365.154 144.058 363.92C158.235 361.453 188.464 363.098 209.521 367.416L215.775 368.649L206.81 358.163C182.835 329.996 161.362 321.977 140.723 333.902C135.719 336.986 128.423 343.771 124.67 348.911C121.126 354.257 117.582 357.341 117.165 356.107C115.497 351.173 130.299 330.407 147.394 312.93L164.489 295.454L152.606 296.688C132.801 298.744 119.25 303.884 109.451 312.725C98.1932 323.005 95.0661 331.64 96.3169 348.5L97.3593 361.248L81.3065 360.219C62.335 359.191 52.745 361.659 42.3211 370.705C27.3106 383.658 19.8054 401.34 17.7206 429.303L16.2613 445.134L24.1835 435.882C41.2787 416.144 57.7485 400.312 69.6317 392.499C76.303 387.976 82.3489 384.892 82.9743 385.509C83.5998 385.92 80.6811 390.032 76.5115 394.555C60.0417 412.649 61.0841 436.704 79.8472 467.751L88.6032 482.143L89.8541 453.358C91.105 424.368 95.0661 404.013 101.32 395.789C104.448 391.677 104.448 391.677 107.575 395.583C118.207 409.77 155.733 524.909 170.952 589.469C173.454 599.543 176.164 611.057 177.415 615.169L179.5 622.982H202.849H226.407L229.118 630.178C232.662 640.253 240.584 645.599 251.216 645.599C259.764 645.599 260.181 645.804 263.725 654.851C269.979 671.299 281.446 671.505 286.032 655.262L288.325 646.627L309.382 647.038C443.225 650.122 521.613 651.767 538.291 651.767C557.679 651.767 558.722 651.973 559.556 656.29C560.181 658.963 561.015 663.692 561.849 666.776C562.474 670.066 566.435 676.234 570.813 680.757C580.82 691.449 590.202 693.094 600.417 686.309C611.467 678.907 615.428 669.86 614.385 653.823C613.76 646.421 612.718 638.608 611.675 636.552C610.633 634.085 610.841 633.057 612.301 633.879C613.551 634.702 615.636 639.431 617.096 644.571L619.806 653.823H637.735C654.83 653.823 785.129 649.505 871.231 646.01L911.675 644.365L918.555 636.758C925.018 629.973 925.643 627.917 925.643 616.814V604.478H907.089H888.534L887.7 598.515C886.033 587.618 888.534 585.973 906.88 585.973C915.845 585.973 923.767 585.357 924.184 584.329C926.06 581.45 919.598 540.535 913.135 514.423C909.799 500.031 902.085 474.125 896.248 456.854C890.411 439.583 886.033 424.985 886.45 424.574C886.867 423.957 891.453 424.368 896.665 425.191C905.421 426.63 906.046 427.247 913.135 441.022C919.389 453.153 921.682 455.826 928.354 458.293C940.237 462.611 941.279 459.732 935.025 442.461C927.103 421.901 925.226 420.667 901.043 419.639C882.071 419.022 881.029 418.817 876.026 413.06C864.768 399.696 847.881 391.471 808.062 380.369C772.203 370.294 744.267 367.416 693.19 368.649C641.279 370.089 644.406 369.472 539.959 399.079C516.401 405.864 487.005 414.088 474.288 417.378C461.779 420.667 433.635 428.48 411.745 434.854C390.063 441.228 350.66 452.125 324.184 459.321C297.915 466.517 271.856 473.713 266.435 475.564C258.305 478.031 256.428 478.237 256.428 475.975C256.428 468.984 271.647 400.929 279.152 375.229C294.371 322.183 316.47 266.052 321.473 267.697C326.894 269.548 337.943 295.454 342.321 316.631C346.074 334.519 346.908 345.827 346.908 382.836C347.116 407.509 347.325 427.658 347.533 427.658C347.742 427.658 352.537 420.667 358.374 412.237C390.063 365.565 399.444 322.388 384.851 290.931C381.932 284.351 374.01 273.66 366.713 266.052C359.625 258.856 354.622 252.894 355.455 252.894C356.498 252.894 363.378 256.183 370.883 260.296C396.734 274.277 427.38 302.65 459.278 341.715C467.408 351.79 474.496 359.808 475.122 359.808C477.207 359.808 473.663 314.164 470.327 298.949C464.073 269.548 450.938 244.464 434.677 230.483C413.829 212.595 379.639 204.371 350.243 210.128C341.696 211.978 334.399 213.212 333.982 212.801C333.774 212.595 334.399 207.455 335.65 201.493C344.406 156.26 324.184 121.718 280.403 106.914C267.269 102.391 241.001 97.4566 223.697 96.0173L212.648 95.1949L237.248 119.045ZM798.889 392.499C836.415 400.312 850.8 405.453 861.641 415.116C871.231 423.546 876.026 433.62 886.867 466.517C898.124 500.853 912.509 562.535 909.799 565.413C908.965 566.235 744.267 556.983 699.236 553.694L684.434 552.46L680.681 530.666C678.805 518.741 672.551 486.666 667.13 459.527C661.71 432.387 658.166 409.359 659 408.331C660.042 407.097 663.795 407.097 668.59 408.331C675.678 409.976 677.346 411.826 684.017 424.574C690.688 437.527 692.148 439.172 700.278 441.845C711.536 445.34 714.663 443.078 710.077 434.237C708.201 430.742 706.741 426.424 706.741 424.574C706.741 422.723 704.865 417.789 702.572 413.471C697.568 403.808 690.48 400.929 670.883 400.929C656.29 400.929 655.456 400.518 654.205 391.677C653.371 385.714 663.795 384.686 720.292 385.509C764.281 386.126 770.744 386.742 798.889 392.499ZM643.572 422.518C651.078 457.265 665.046 538.479 665.046 546.703C665.046 550.404 664.212 551.226 661.501 549.993C636.276 539.301 584.573 529.021 532.662 524.292C497.846 521.208 394.024 521.825 347.95 525.32C308.965 528.404 262.474 533.544 252.676 536.012C248.506 537.04 248.089 536.423 248.298 529.227C248.298 515.04 253.51 488.928 256.637 487.283C258.096 486.255 263.308 484.816 267.895 484.199C272.481 483.377 286.032 480.087 298.124 476.592C337.318 465.284 362.752 458.499 420.084 444.106C451.147 436.499 494.302 425.191 515.984 419.434C537.874 413.677 566.018 406.275 578.527 402.78C591.244 399.49 607.506 395.172 615.011 392.911C637.11 386.537 635.65 384.892 643.572 422.518ZM528.701 536.628C543.503 537.862 564.142 540.124 574.358 541.974C606.672 547.32 652.537 560.273 652.537 564.179C652.537 564.591 645.24 563.151 636.484 561.095C607.089 553.899 590.41 551.226 559.973 547.937C528.701 544.853 450.313 543.619 450.313 546.497C450.313 547.32 454.691 550.815 460.32 554.105L470.118 560.273L438.847 560.89C407.575 561.507 305.004 557.806 283.53 555.338C276.859 554.516 301.46 553.488 341.904 552.666C380.264 551.843 414.455 550.404 417.79 549.581L423.628 547.731L416.123 542.796C411.953 539.918 408.617 537.04 408.617 536.012C408.617 533.75 497.638 534.161 528.701 536.628ZM262.266 552.46C260.181 552.871 256.428 552.871 253.927 552.46C251.216 552.049 252.884 551.637 257.471 551.637C262.057 551.432 264.142 551.843 262.266 552.46ZM722.377 587.618C729.882 589.058 730.716 589.674 731.342 595.843C732.176 604.478 729.882 605.3 707.367 603.039C690.272 601.599 689.021 600.983 688.395 596.665C686.936 587.618 689.021 585.973 701.946 586.179C708.618 586.179 717.791 586.796 722.377 587.618ZM800.557 591.525C826.408 591.936 853.301 591.73 860.598 590.497C871.022 589.058 873.524 589.263 873.524 591.525C873.524 592.964 872.898 594.198 872.065 594.198C871.022 594.198 863.934 594.814 855.803 595.431C847.881 596.048 829.952 597.282 816.192 598.31C792.009 599.955 792.426 600.16 825.574 599.132C844.545 598.721 862.058 597.693 864.768 597.076C867.27 596.254 869.354 596.665 869.354 597.899C869.354 601.394 849.549 603.039 806.811 603.039C772.62 603.244 769.076 603.45 783.878 604.889C793.677 605.712 816.192 606.123 833.913 605.712C859.764 604.889 863.934 605.095 854.761 606.74C841.627 609.207 760.112 608.384 757.61 605.917C756.568 605.095 757.193 603.45 758.861 602.422C761.363 600.777 760.946 600.366 757.401 600.366C754.9 600.366 752.398 599.543 751.773 598.515C751.147 597.693 759.695 597.076 770.953 597.487L791.175 598.104L771.786 596.254C750.522 594.403 746.352 593.375 746.352 589.88C746.352 588.441 747.811 588.235 750.105 589.058C751.981 589.674 774.705 590.908 800.557 591.525Z" fill="#FF5C00"/>
<path d="M717.165 407.097C734.886 412.854 756.985 420.462 766.158 423.957C802.641 437.938 861.224 472.274 873.524 486.872C881.238 495.713 881.655 498.18 867.895 455.62C861.432 436.088 857.054 425.807 853.51 422.518C850.591 419.845 840.167 415.322 830.16 412.237C799.306 402.574 772.204 398.873 726.547 397.64L684.851 396.612L717.165 407.097Z" fill="#4E00F3"/>
<path d="M575.817 412.032C552.467 417.789 533.287 422.929 533.287 423.546C533.079 424.163 533.704 428.686 534.538 433.62L535.998 442.667L551.008 441.022C559.347 440.2 580.195 439.172 597.29 438.76C614.594 438.349 628.562 437.938 628.77 437.938C630.021 437.732 621.682 402.163 620.223 401.752C618.972 401.546 599.167 406.069 575.817 412.032Z" fill="#4E00F3"/>
<path d="M471.161 437.732C395.692 457.265 342.53 470.424 318.346 475.975C304.795 479.059 294.163 481.937 294.58 482.349C295.205 482.966 303.961 481.526 313.968 479.265C360.667 469.19 468.868 450.686 495.97 448.218C507.853 447.19 518.069 445.957 518.485 445.545C518.902 444.929 518.694 440.817 517.86 436.088C516.818 430.125 515.567 427.658 513.065 427.863C511.189 427.863 492.426 432.387 471.161 437.732Z" fill="#4E00F3"/>
<path d="M836.623 651.15C824.532 651.973 823.489 652.384 823.489 656.701C823.489 664.309 834.747 678.084 843.086 680.346C859.556 684.664 871.648 675.823 876.443 655.262L877.693 649.711L863.725 650.122C855.803 650.328 843.712 650.739 836.623 651.15Z" fill="#4E00F3"/>
<path d="M385.685 656.701C385.685 658.346 388.187 661.636 391.314 663.898C396.109 667.804 397.36 668.01 401.112 665.542C403.614 663.898 405.699 660.608 406.116 658.141C406.741 654.234 405.907 653.823 396.317 653.823C388.395 653.823 385.685 654.645 385.685 656.701Z" fill="#4E00F3"/>
</svg>
